OpenSim_Sub09_CSBaseline_RCS.mot
version=1
nRows=67
nColumns=11
inDegrees=no
endheader
time	Top_Thigh	Med_Thigh	Bot_Thigh	Top_Shank	2nd_Top_Shank	2nd_Bot_Shank	Bot_Shank	BNOx	BNOy	BNOZ
14.60000000	2156.56851995	2054.61647542	1839.36446288	1331.34904837	1510.06121886	1325.03630132	1322.07459925	31.15489649	-71.11168818	144.65124958
14.61000000	2151.90412913	2055.69611103	1849.13175777	1330.13318301	1511.51470316	1323.93980871	1322.13805884	32.55715928	-70.80395398	143.58512008
14.62000000	2149.82382703	2057.39541081	1857.47197698	1328.69673692	1513.41464667	1322.75875156	1321.93721761	33.97388552	-70.41527376	142.25387881
14.63000000	2150.68766407	2059.78038895	1863.24976687	1327.09099475	1515.68744864	1321.53332240	1321.45722899	35.40036313	-69.93661159	140.40753425
14.64000000	2154.06546952	2062.77725770	1866.69362168	1325.40651199	1518.13637791	1320.31372158	1320.72094313	36.85132071	-69.36295239	138.12777242
14.65000000	2159.42015058	2066.29331325	1868.21657325	1323.73915772	1520.54804295	1319.15150358	1319.75631082	38.34411732	-68.68982515	135.54115749
14.66000000	2166.21461441	2070.23585176	1868.23165338	1322.18480100	1522.70905223	1318.09822289	1318.59128285	39.89611201	-67.91275886	132.77425360
14.67000000	2173.91176822	2074.51216941	1867.15189391	1320.83931092	1524.40601422	1317.20543398	1317.25381000	41.52466385	-67.02728248	129.95362493
14.68000000	2181.97451916	2079.02956236	1865.39032665	1319.79855655	1525.42553740	1316.52469134	1315.77184306	43.24713188	-66.02892502	127.20583562
14.69000000	2189.86577444	2083.69532678	1863.35998342	1319.15840697	1525.55423023	1316.10754945	1314.17333280	45.08087516	-64.91321544	124.65744984
14.70000000	2197.05097383	2088.41728676	1861.47187703	1319.01388934	1524.58055430	1316.00508520	1312.48628772	47.04303050	-63.67582951	122.43425577
14.71000000	2203.19150587	2093.14411156	1859.98080869	1319.39489181	1522.43634654	1316.23142410	1310.74318009	49.13353984	-62.32379906	120.60200430
14.72000000	2208.28090581	2097.89370585	1858.87679005	1320.22088740	1519.29647507	1316.73805651	1308.98404867	51.32319857	-60.88340526	119.12467891
14.73000000	2212.34488240	2102.69068078	1858.12418388	1321.40065369	1515.35934930	1317.47040561	1307.24966514	53.57997879	-59.38279389	117.95640534
14.74000000	2215.40914438	2107.55964753	1857.68735294	1322.84296830	1510.82337863	1318.37389460	1305.58080119	55.87185262	-57.85011070	117.05130935
14.75000000	2217.49940049	2112.52521726	1857.53065998	1324.45660884	1505.88697249	1319.39394665	1304.01822848	58.16679217	-56.31350147	116.36351668
14.76000000	2218.64135948	2117.61200114	1857.61846776	1326.15035291	1500.74854027	1320.47598496	1302.60271870	60.43276955	-54.80111196	115.84715310
14.77000000	2218.86073008	2122.84461035	1857.91513904	1327.83297812	1495.60649139	1321.56543271	1301.37504354	62.63775686	-53.34108794	115.45634434
14.78000000	2218.18322105	2128.24765604	1858.38503658	1329.41326207	1490.65923525	1322.60771308	1300.37597466	64.74972621	-51.96157517	115.14521616
14.79000000	2216.63454112	2133.84574939	1858.99252313	1330.79998237	1486.10518127	1323.54824927	1299.64628376	66.73664971	-50.69071942	114.86789431
14.80000000	2214.24039904	2139.66350157	1859.70196146	1331.90191663	1482.14273884	1324.33246446	1299.22674251	68.56649948	-49.55666646	114.57850454
14.81000000	2211.02650355	2145.72552373	1860.47771431	1332.62784245	1478.97031739	1324.90578183	1299.15812260	70.20724762	-48.58756206	114.23117260
14.82000000	2207.01856339	2152.05642706	1861.28414446	1332.88653745	1476.78632632	1325.21362457	1299.48119569	71.62686624	-47.81155197	113.78002425
14.83000000	2202.24228731	2158.68082272	1862.08561464	1332.58677921	1475.78917503	1325.20141587	1300.23673348	72.79332745	-47.25678197	113.17918522
14.84000000	2196.72338405	2165.62332187	1862.84648763	1331.63734537	1476.17727295	1324.81457892	1301.46550764	73.67460335	-46.95139782	112.38278128
14.85000000	2190.48756236	2172.90853568	1863.53112618	1329.94701350	1478.14902947	1323.99853689	1303.20828986	74.23866607	-46.92354530	111.34493818
14.86000000	2183.56058987	2180.55866342	1864.10340029	1327.42551264	1481.90148190	1322.69919132	1305.50530550	74.45353523	-47.20123601	110.02091020
14.87000000	2175.98072205	2188.08457902	1864.42271370	1324.18426821	1487.34078230	1320.96385254	1308.28096330	74.29730728	-47.78404188	108.60520339
14.88000000	2167.81407627	2193.85632213	1864.11539224	1320.78471707	1493.72407931	1319.06608725	1311.20126969	73.77056133	-48.60808208	107.82612597
14.89000000	2159.13053982	2196.08957003	1862.77622473	1317.84918555	1500.22070713	1317.31007618	1313.89726761	72.87691851	-49.60089025	108.48421311
14.90000000	2150	2193	1860	1316	1506	1316	1316	71.62000000	-50.69000000	111.38000000
14.91000000	2140.51376025	2183.39269935	1855.52273904	1315.69182728	1510.39898905	1315.36264351	1317.23196376	70.01211225	-51.81907963	116.87958744
14.92000000	2130.84878873	2168.43039549	1849.64539150	1316.70869639	1513.42549316	1315.31520781	1317.68147168	68.10030296	-52.99633617	123.61133875
14.93000000	2121.20346974	2149.86522586	1842.81013918	1318.66697687	1515.25502810	1315.69749809	1317.52829052	65.94030514	-54.24611131	129.76918291
14.94000000	2111.77618760	2129.44932787	1835.45916390	1321.18303825	1516.06310969	1316.34931954	1316.95218702	63.58785178	-55.59274678	133.54704889
14.95000000	2102.76532662	2108.93483897	1828.03464745	1323.87325006	1516.02525371	1317.11047735	1316.13292795	61.09867590	-57.06058428	133.13886563
14.96000000	2094.36927113	2090.07389660	1820.97877164	1326.35398183	1515.31697596	1317.82077671	1315.25028006	58.52851049	-58.67396552	126.73856212
14.97000000	2086.77389467	2074.49488210	1814.70410741	1328.26781691	1514.10826433	1318.33160634	1314.47309058	55.92714329	-60.45227823	112.73502628
14.98000000	2080.03591462	2062.54856679	1809.31753453	1329.52795998	1512.51203876	1318.61393882	1313.85747782	53.28298521	-62.36376731	91.52982725
14.99000000	2074.13585313	2053.83200060	1804.74559134	1330.20726780	1510.60755218	1318.70929483	1313.39305603	50.54823814	-64.34650614	64.71190814
15	2069.05324753	2047.93249174	1800.91248534	1330.38066057	1508.47362239	1318.66010684	1313.06857994	47.67463599	-66.33817811	33.88555867
15.01000000	2064.76763515	2044.43734840	1797.74242400	1330.12305855	1506.18906715	1318.50880734	1312.87280426	44.61391266	-68.27646663	0.65506855
15.02000000	2061.25855335	2042.93387878	1795.15961479	1329.50938194	1503.83270426	1318.29782882	1312.79448370	41.31780205	-70.09905511	-33.37527249
15.03000000	2058.50553944	2043.00939108	1793.08826520	1328.61455097	1501.48335150	1318.06960376	1312.82237298	37.73803806	-71.74362695	-66.60117475
15.04000000	2056.48813078	2044.25119351	1791.45258270	1327.51348588	1499.21982665	1317.86656465	1312.94522682	33.82635459	-73.14786555	-97.41834849
15.05000000	2055.18586468	2046.24659426	1790.17677477	1326.28110689	1497.12094750	1317.73114397	1313.15179992	29.53448555	-74.24945432	-124.22250400
15.06000000	2054.57827850	2048.58290153	1789.18504889	1324.99233422	1495.26553183	1317.70577421	1313.43084701	24.81416482	-74.98607665	-145.40935157
15.07000000	2054.64490956	2050.84742352	1788.40161253	1323.72208811	1493.73239743	1317.83288786	1313.77112279	19.61712633	-75.29541597	-159.37460146
15.08000000	2055.36318525	2052.63123760	1787.75089031	1322.54446110	1492.60086189	1318.15382255	1314.16129571	13.90629640	-75.11714684	-164.55837039
15.09000000	2056.62850885	2053.67194728	1787.16574786	1321.50136992	1491.96967258	1318.66735373	1314.58668014	8.07970764	-74.46835087	-161.12707448
15.10000000	2058.22973141	2053.89749870	1786.59001602	1320.59293376	1491.96281692	1319.31696705	1315.02823339	3.10061106	-73.46666411	-151.48965387
15.11000000	2059.94858289	2053.24855896	1785.96825843	1319.81647840	1492.70596912	1320.04245303	1315.46662160	-0.02996783	-72.23644284	-138.20492035
15.12000000	2061.56679327	2051.66579512	1785.24503875	1319.16932964	1494.32480341	1320.78360223	1315.88251091	-0.31100353	-70.90204334	-123.83168574
15.13000000	2062.87975905	2049.10205760	1784.36919053	1318.64843915	1496.92768594	1321.48341875	1316.25771384	3.17805874	-69.58089873	-110.77397921
15.14000000	2063.82396462	2045.63597281	1783.33362823	1318.24689644	1500.44430101	1322.11808248	1316.58587795	10.52702484	-68.31897009	-99.83791398
15.15000000	2064.41912865	2041.42036830	1782.15727164	1317.95551254	1504.69892018	1322.68334521	1316.86763281	21.33560332	-67.12005381	-90.88691854
15.16000000	2064.68604562	2036.60903061	1780.85937668	1317.76506904	1509.51445257	1323.17521170	1317.10369822	35.19716833	-65.98740135	-83.77223733
15.17000000	2064.64550998	2031.35574632	1779.45919926	1317.66634754	1514.71380732	1323.58968671	1317.29479399	51.70509399	-64.92426413	-78.34511480
15.18000000	2064.31831620	2025.81430199	1777.97599530	1317.65012960	1520.11989356	1323.92277500	1317.44163995	70.45275445	-63.93389359	-74.45679539
15.19000000	2063.72525876	2020.13848419	1776.42902071	1317.70719682	1525.55562040	1324.17048133	1317.54495589	91.03352385	-63.01954117	-71.95852354
15.20000000	2062.88713210	2014.48207947	1774.83753141	1317.82833079	1530.84389699	1324.32881046	1317.60546163	113.04077631	-62.18445830	-70.70154370
15.21000000	2061.82473071	2008.99887441	1773.22078331	1318.00431308	1535.80763244	1324.39376716	1317.62387699	136.06788597	-61.43189641	-70.53710030
15.22000000	2060.55884904	2003.84265556	1771.59803232	1318.22592530	1540.26973589	1324.36135617	1317.60092176	159.70822697	-60.76510695	-71.31643781
15.23000000	2059.11028157	1999.16720950	1769.98853437	1318.48394901	1544.05311646	1324.22758227	1317.53731577	183.55517344	-60.18734135	-72.89080065
15.24000000	2057.49982275	1995.12632279	1768.41154536	1318.76916582	1546.98068328	1323.98845021	1317.43377883	207.20209952	-59.70185104	-75.11143327
15.25000000	2055.74826706	1991.87378198	1766.88632122	1319.07235729	1548.87534547	1323.63996475	1317.29103074	230.24237935	-59.31188747	-77.82958012
15.26000000	2053.87640896	1989.56337365	1765.43211786	1319.38430503	1549.56001217	1323.17813065	1317.10979131	252.26938705	-59.02070206	-80.89648564
